HIERARCHY
ROOT Hips
{
    OFFSET 0.000000 0.000000 0.000000
    CHANNELS 6 Xposition Yposition Zposition Zrotation Xrotation Yrotation
    JOINT Spine
    {
        OFFSET -0.000000 7.315584 0.000000
        CHANNELS 3 Zrotation Xrotation Yrotation
        JOINT Spine1
        {
            OFFSET -0.000000 21.742830 0.000000
            CHANNELS 3 Zrotation Xrotation Yrotation
            JOINT Neck
            {
                OFFSET -0.000000 21.653538 1.968503
                CHANNELS 3 Zrotation Xrotation Yrotation
                JOINT Head
                {
                    OFFSET -0.000000 12.490022 -1.784289
                    CHANNELS 3 Zrotation Xrotation Yrotation
                    End Site
                    {
                        OFFSET -0.000000 22.303610 0.000000
                    }
                }
            }
            JOINT LeftShoulder
            {
                OFFSET 3.565460 21.440739 -0.045508
                CHANNELS 3 Zrotation Xrotation Yrotation
                JOINT LeftArm
                {
                    OFFSET 5.865323 0.000000 0.000000
                    CHANNELS 3 Zrotation Xrotation Yrotation
                    JOINT LeftForeArm
                    {
                        OFFSET 30.083149 0.000000 0.000000
                        CHANNELS 3 Zrotation Xrotation Yrotation
                        JOINT LeftHand
                        {
                            OFFSET 21.313328 0.000000 0.000000
                            CHANNELS 3 Zrotation Xrotation Yrotation
                            End Site
                            {
                                OFFSET 13.382167 0.000000 0.000000
                            }
                        }
                    }
                }
            }
            JOINT RightShoulder
            {
                OFFSET -3.556053 21.440739 -0.045508
                CHANNELS 3 Zrotation Xrotation Yrotation
                JOINT RightArm
                {
                    OFFSET -5.865323 0.000000 0.000000
                    CHANNELS 3 Zrotation Xrotation Yrotation
                    JOINT RightForeArm
                    {
                        OFFSET -30.083149 0.000000 0.000000
                        CHANNELS 3 Zrotation Xrotation Yrotation
                        JOINT RightHand
                        {
                            OFFSET -21.313328 0.000000 0.000000
                            CHANNELS 3 Zrotation Xrotation Yrotation
                            End Site
                            {
                                OFFSET -13.382167 0.000000 0.000000
                            }
                        }
                    }
                }
            }
        }
    }
    JOINT LeftUpLeg
    {
        OFFSET 8.921444 0.000000 0.000000
        CHANNELS 3 Zrotation Xrotation Yrotation
        JOINT LeftLeg
        {
            OFFSET -0.000000 -39.632927 0.000000
            CHANNELS 3 Zrotation Xrotation Yrotation
            JOINT LeftFoot
            {
                OFFSET -0.000000 -38.058365 0.000000
                CHANNELS 3 Zrotation Xrotation Yrotation
                JOINT LeftToeBase
                {
                    OFFSET -0.000000 -5.798938 13.382167
                    CHANNELS 3 Zrotation Xrotation Yrotation
                    End Site
                    {
                        OFFSET -0.000000 0.000000 3.568577
                    }
                }
            }
        }
    }
    JOINT RightUpLeg
    {
        OFFSET -8.921444 0.000000 0.000000
        CHANNELS 3 Zrotation Xrotation Yrotation
        JOINT RightLeg
        {
            OFFSET -0.000000 -39.632927 0.000000
            CHANNELS 3 Zrotation Xrotation Yrotation
            JOINT RightFoot
            {
                OFFSET -0.000000 -38.058365 0.000000
                CHANNELS 3 Zrotation Xrotation Yrotation
                JOINT RightToeBase
                {
                    OFFSET -0.000000 -5.798938 13.382167
                    CHANNELS 3 Zrotation Xrotation Yrotation
                    End Site
                    {
                        OFFSET -0.000000 0.000000 3.568577
                    }
                }
            }
        }
    }
}
MOTION
Frames:    8
Frame Time:    0.004000
-5.345974    84.379608    -51.031612    -1.730900    9.232934    11.948451    1.341777    1.376193    -2.262730    -1.285265    -1.859714    -2.267527    -3.975801    3.742309    0.945021    0.058494    5.710551    1.447403    5.148437    3.377628    -11.805962    -26.650555    36.986649    -24.317730    55.171970    -35.298550    -40.139278    2.669142    -15.303310    5.850404    -5.167371    7.097150    1.433076    25.433891    39.154346    16.032207    -38.787380    -32.972961    72.066376    -0.179780    -4.934156    -2.332459    -1.138278    -1.747014    7.560703    0.523590    19.905005    0.999876    -7.962604    5.820186    -2.048026    0.000000    0.000000    0.000000    -3.946561    -11.080873    -2.359202    5.603707    31.433628    3.764143    10.093150    -1.468208    -17.612186    0.000000    0.000000    0.000000    
-5.189251    85.226021    -50.186478    -1.735602    9.070424    11.997277    1.376858    0.518952    -2.248751    -1.264853    -1.771458    -2.262125    -4.259701    5.450207    0.987856    0.220808    5.890374    1.473944    4.615406    3.697200    -11.661661    -26.398449    37.135139    -24.345041    54.863728    -34.983757    -40.226246    2.599775    -15.033160    5.582233    -5.164348    7.171381    1.411449    25.515965    39.445972    15.500101    -38.330719    -32.381557    72.201012    -0.167982    -4.555171    -2.499089    -0.972080    -0.347125    8.290859    0.521129    17.650755    1.875813    -9.299480    10.387116    -2.801547    0.000000    0.000000    0.000000    -4.089236    -9.428498    -3.643499    4.988196    29.034044    3.148673    11.850748    2.094090    -16.033100    0.000000    0.000000    0.000000    
-5.034499    86.078163    -49.377769    -1.732801    9.024000    12.086985    1.274069    -0.343424    -2.157308    -1.090327    -1.798024    -2.178255    -4.552755    6.736630    0.963982    0.464569    6.738675    1.444327    4.183926    3.604180    -11.554336    -26.468328    37.718060    -24.433271    54.714088    -34.582054    -40.161068    1.982748    -14.699892    5.439065    -4.922838    6.905419    1.165460    25.657984    40.024181    14.504808    -37.693790    -31.798737    72.489594    -0.418276    -4.256357    -2.444406    -0.881194    0.764037    8.815161    0.690000    15.613978    2.256709    -9.237688    14.656854    -3.755203    0.000000    0.000000    0.000000    -4.318598    -8.038117    -4.168667    4.900161    26.880041    2.288025    13.925610    5.474808    -15.267920    0.000000    0.000000    0.000000    
-4.884872    86.931541    -48.600384    -1.731340    9.057978    12.204884    1.259724    -1.165067    -2.155400    -1.103662    -2.055401    -2.188033    -4.826223    8.570846    1.017110    0.766144    6.856055    1.467798    3.435241    4.037629    -11.084009    -25.718203    38.017353    -24.947794    54.307766    -34.199657    -40.298630    1.763089    -14.367299    5.602128    -4.724554    7.031334    1.031289    25.639853    40.477482    13.992613    -37.098686    -31.197763    72.543266    -0.921764    -4.028553    -2.647782    -0.791393    1.608920    9.379128    0.758261    14.044182    2.823420    -7.888443    18.818779    -5.140661    0.000000    0.000000    0.000000    -4.487612    -6.935327    -5.005549    4.457679    24.861639    -0.188366    15.674575    9.837812    -12.824567    0.000000    0.000000    0.000000    
-4.744942    87.769791    -47.879906    -1.701807    9.156841    12.341485    1.221493    -2.079698    -2.127102    -1.173216    -2.076649    -2.170551    -5.029042    10.389135    1.005687    1.035785    6.597156    1.411297    3.025158    4.032747    -10.879434    -25.548622    38.406643    -25.087193    53.934662    -33.867229    -40.383701    1.050354    -14.139173    5.296052    -4.490104    7.208913    0.742778    25.673595    40.565655    13.463237    -36.406288    -30.626133    72.831726    -0.995315    -3.805175    -2.707371    -0.774046    2.059689    9.946209    1.001972    13.224440    2.873127    -7.076676    22.350693    -5.933480    0.000000    0.000000    0.000000    -4.589648    -6.035114    -6.186466    3.799754    23.252777    -0.257236    16.454250    13.716688    -12.182258    0.000000    0.000000    0.000000    
-4.598472    88.644402    -47.151405    -1.619008    9.167624    12.466760    1.122259    -2.688308    -2.082003    -1.194893    -2.475214    -2.134172    -5.232810    12.330846    1.023506    1.348645    6.357315    1.376688    2.505315    4.336173    -10.531484    -25.082468    38.750694    -25.572641    53.370838    -33.537319    -40.515278    0.597834    -13.962802    4.940328    -4.249869    7.432599    0.541457    25.888575    40.485939    12.767258    -35.447124    -29.859722    73.213890    -1.045923    -3.546721    -2.684897    -0.810140    2.419740    10.591942    1.226410    12.908799    3.506776    -6.559608    25.732904    -6.547394    0.000000    0.000000    0.000000    -4.740312    -5.160244    -6.951700    3.160086    21.890982    -0.707966    17.034075    17.784569    -11.196343    0.000000    0.000000    0.000000    
-4.490664    89.477226    -46.521248    -1.632646    9.419371    12.645969    0.991034    -3.500796    -2.033698    -1.087979    -2.781364    -2.090417    -5.483347    14.280939    0.964897    1.591136    5.806895    1.253947    1.903047    4.528568    -10.482608    -24.752592    38.978512    -25.717066    52.622017    -33.288094    -40.730911    0.207816    -13.915333    4.302301    -4.120807    7.588388    0.069306    25.884594    40.561485    12.464754    -34.527592    -29.192450    73.485786    -1.282640    -3.430430    -2.665481    -0.741767    2.175849    11.160770    1.587035    13.334550    3.184724    -7.439876    28.095413    -5.630355    0.000000    0.000000    0.000000    -4.827017    -4.794913    -7.508178    2.600429    21.053900    -0.609025    16.676283    21.361227    -10.579680    0.000000    0.000000    0.000000    
-4.390563    90.321541    -45.923470    -1.622749    9.647364    12.863105    0.921513    -4.095576    -2.039559    -1.189246    -3.315413    -2.106947    -5.593206    16.334665    0.982920    1.827103    4.958536    1.201783    1.349641    4.637521    -10.402772    -24.529963    39.210491    -25.696033    51.693344    -32.990932    -41.107819    0.139611    -13.794209    3.763105    -3.690586    7.984063    0.117693    26.092009    40.256603    11.585136    -33.617439    -28.621096    73.758102    -1.323003    -3.428167    -2.482334    -0.662470    1.765190    11.553358    1.804100    14.348873    2.993519    -8.169456    29.293537    -4.430269    0.000000    0.000000    0.000000    -4.930499    -4.560830    -8.065042    2.101506    20.604906    -0.455475    16.835806    24.189348    -10.461339    0.000000    0.000000    0.000000    
